:FULLY-SPECIFIED
:FORCE-ALL-JOINTS-BE-3DOF
:DEGREES
1
root -2.95645 16.8291 -36.2757 3.79203 -0.409345 -2.77144
lfemur -18.1857 -3.85478 -7.37129
ltibia 37.6337 0 0
lfoot -17.8071 6.78532 0
ltoes -26.1578 0 0
rfemur -19.1521 0.15077 14.7318
rtibia 40.3652 0 0
rfoot -23.1652 -2.86285 0
rtoes -21.0274 0 0
lowerback 7.02591 2.55716 -1.97249
upperback -3.14202 3.31583 1.27229
thorax -7.43554 1.75645 1.99661
lowerneck -4.68188 -4.04088 -6.84108
upperneck 4.69893 -5.30737 6.47589
head 2.76948 -2.5844 3.14763
lclavicle 1.91563e-15 -9.24349e-15 0
lhumerus -27.0689 -5.33108 89.6453
lradius 25.7364 0 0
lwrist -30.6252 0 0
lhand -28.8405 29.9909 0
lfingers 7.12502 0 0
lthumb -2.19771 59.9594 0
rclavicle 1.91563e-15 -9.24349e-15 0
rhumerus -32.8355 4.71181 -81.727
rradius 32.9783 0 0
rwrist 3.84135 0 0
rhand -24.1523 -25.0894 0
rfingers 7.12502 0 0
rthumb 2.33029 -55.0564 0
2
root -2.94969 16.8267 -36.2745 3.89712 -0.276092 -2.65173
lfemur -18.164 -3.84359 -7.39004
ltibia 37.6543 0 0
lfoot -17.8228 6.81745 0
ltoes -26.1289 0 0
rfemur -19.206 0.141721 14.7261
rtibia 40.3923 0 0
rfoot -23.1279 -2.84295 0
rtoes -21.0103 0 0
lowerback 7.04344 2.55268 -1.98603
upperback -3.1379 3.30681 1.2733
thorax -7.44008 1.7529 2.00735
lowerneck -4.68207 -4.03784 -6.83581
upperneck 4.70085 -5.30317 6.46795
head 2.76952 -2.58244 3.14419
lclavicle 1.90153e-15 -9.22769e-15 0
lhumerus -27.0143 -5.39899 89.6432
lradius 25.7791 0 0
lwrist -30.6024 0 0
lhand -28.8353 30.0089 0
lfingers 7.12502 0 0
lthumb -2.19269 59.9774 0
rclavicle 1.90153e-15 -9.22769e-15 0
rhumerus -32.7764 4.74774 -81.7027
rradius 33.1132 0 0
rwrist 3.76626 0 0
rhand -23.9739 -25.068 0
rfingers 7.12502 0 0
rthumb 2.42197 -55.1143 0
3
root -2.9428 16.8242 -36.2733 4.00404 -0.140383 -2.52993
lfemur -18.1418 -3.8322 -7.40915
ltibia 37.6753 0 0
lfoot -17.8387 6.85018 0
ltoes -26.0994 0 0
rfemur -19.261 0.132493 14.7204
rtibia 40.4199 0 0
rfoot -23.0899 -2.82268 0
rtoes -20.9929 0 0
lowerback 7.0613 2.54811 -1.99982
upperback -3.13369 3.29762 1.27432
thorax -7.4447 1.74929 2.01829
lowerneck -4.68226 -4.03473 -6.83044
upperneck 4.7028 -5.2989 6.45987
head 2.76957 -2.58044 3.14069
lclavicle 1.88729e-15 -9.21167e-15 0
lhumerus -26.9586 -5.46815 89.641
lradius 25.8225 0 0
lwrist -30.5792 0 0
lhand -28.83 30.0273 0
lfingers 7.12502 0 0
lthumb -2.18759 59.9958 0
rclavicle 1.88729e-15 -9.21167e-15 0
rhumerus -32.7163 4.78436 -81.6779
rradius 33.2507 0 0
rwrist 3.68984 0 0
rhand -23.7923 -25.0461 0
rfingers 7.12502 0 0
rthumb 2.51543 -55.1749 0
4
root -2.9358 16.8217 -36.272 4.11278 -0.00223617 -2.40603
lfemur -18.1193 -3.82059 -7.42861
ltibia 37.6966 0 0
lfoot -17.855 6.8835 0
ltoes -26.0695 0 0
rfemur -19.3169 0.123086 14.7145
rtibia 40.4481 0 0
rfoot -23.0513 -2.80205 0
rtoes -20.9753 0 0
lowerback 7.0795 2.54346 -2.01387
upperback -3.12941 3.28826 1.27536
thorax -7.44941 1.74561 2.02943
lowerneck -4.68246 -4.03157 -6.82497
upperneck 4.70477 -5.29453 6.45165
head 2.76961 -2.57841 3.13713
lclavicle 1.87289e-15 -9.19543e-15 0
lhumerus -26.9019 -5.53855 89.6387
lradius 25.8667 0 0
lwrist -30.5555 0 0
lhand -28.8246 30.0459 0
lfingers 7.12502 0 0
lthumb -2.18239 60.0145 0
rclavicle 1.87289e-15 -9.19543e-15 0
rhumerus -32.6552 4.82167 -81.6527
rradius 33.3906 0 0
rwrist 3.61208 0 0
rhand -23.6075 -25.0236 0
rfingers 7.12502 0 0
rthumb 2.61064 -55.2382 0
5
root -2.92867 16.8192 -36.2707 4.22333 0.138335 -2.28005
lfemur -18.0963 -3.80878 -7.44842
ltibia 37.7183 0 0
lfoot -17.8715 6.9174 0
ltoes -26.039 0 0
rfemur -19.3738 0.113502 14.7086
rtibia 40.4768 0 0
rfoot -23.0121 -2.78107 0
rtoes -20.9573 0 0
lowerback 7.09803 2.53873 -2.02817
upperback -3.12506 3.27874 1.27642
thorax -7.4542 1.74186 2.04077
lowerneck -4.68266 -4.02834 -6.8194
upperneck 4.70678 -5.29009 6.44328
head 2.76965 -2.57633 3.13351
lclavicle 1.85834e-15 -9.17897e-15 0
lhumerus -26.8441 -5.6102 89.6363
lradius 25.9116 0 0
lwrist -30.5315 0 0
lhand -28.8192 30.0649 0
lfingers 7.12502 0 0
lthumb -2.17711 60.0335 0
rclavicle 1.85834e-15 -9.17897e-15 0
rhumerus -32.593 4.85966 -81.6271
rradius 33.5331 0 0
rwrist 3.533 0 0
rhand -23.4196 -25.0006 0
rfingers 7.12502 0 0
rthumb 2.70761 -55.3042 0
6
root -2.92142 16.8166 -36.2694 4.33567 0.281314 -2.15201
lfemur -18.073 -3.79676 -7.46857
ltibia 37.7404 0 0
lfoot -17.8883 6.95189 0
ltoes -26.0079 0 0
rfemur -19.4318 0.103743 14.7025
rtibia 40.5061 0 0
rfoot -22.9722 -2.75973 0
rtoes -20.939 0 0
lowerback 7.11688 2.53392 -2.04271
upperback -3.12062 3.26905 1.27749
thorax -7.45908 1.73805 2.0523
lowerneck -4.68286 -4.02506 -6.81374
upperneck 4.70882 -5.28556 6.43477
head 2.76969 -2.57422 3.12982
lclavicle 1.84364e-15 -9.16229e-15 0
lhumerus -26.7853 -5.68307 89.6338
lradius 25.9572 0 0
lwrist -30.5071 0 0
lhand -28.8136 30.0842 0
lfingers 7.12502 0 0
lthumb -2.17174 60.0528 0
rclavicle 1.84364e-15 -9.16229e-15 0
rhumerus -32.5298 4.89833 -81.601
rradius 33.6781 0 0
rwrist 3.45261 0 0
rhand -23.2285 -24.977 0
rfingers 7.12502 0 0
rthumb 2.80631 -55.3728 0
7
root -2.91405 16.814 -36.2681 4.4498 0.426687 -2.02192
lfemur -18.0493 -3.78454 -7.48907
ltibia 37.7629 0 0
lfoot -17.9054 6.98696 0
ltoes -25.9764 0 0
rfemur -19.4907 0.093808 14.6964
rtibia 40.5359 0 0
rfoot -22.9317 -2.73803 0
rtoes -20.9205 0 0
lowerback 7.13606 2.52902 -2.0575
upperback -3.11611 3.2592 1.27858
thorax -7.46404 1.73418 2.06402
lowerneck -4.68307 -4.02171 -6.80797
upperneck 4.71088 -5.28095 6.42612
head 2.76973 -2.57206 3.12608
lclavicle 1.82879e-15 -9.14538e-15 0
lhumerus -26.7254 -5.75716 89.6312
lradius 26.0036 0 0
lwrist -30.4823 0 0
lhand -28.808 30.1038 0
lfingers 7.12502 0 0
lthumb -2.16629 60.0724 0
rclavicle 1.82879e-15 -9.14538e-15 0
rhumerus -32.4657 4.93768 -81.5745
rradius 33.8255 0 0
rwrist 3.37091 0 0
rhand -23.0343 -24.9528 0
rfingers 7.12502 0 0
rthumb 2.90674 -55.4441 0
8
root -2.90657 16.8113 -36.2668 4.5657 0.574437 -1.88978
lfemur -18.0252 -3.77212 -7.50991
ltibia 37.7858 0 0
lfoot -17.9228 7.0226 0
ltoes -25.9443 0 0
rfemur -19.5505 0.0836998 14.6902
rtibia 40.5662 0 0
rfoot -22.8906 -2.71598 0
rtoes -20.9017 0 0
lowerback 7.15556 2.52405 -2.07254
upperback -3.11152 3.24918 1.27968
thorax -7.46909 1.73024 2.07594
lowerneck -4.68328 -4.01831 -6.80211
upperneck 4.71297 -5.27626 6.41733
head 2.76976 -2.56987 3.12227
lclavicle 1.81379e-15 -9.12827e-15 0
lhumerus -26.6644 -5.83247 89.6286
lradius 26.0506 0 0
lwrist -30.4571 0 0
lhand -28.8022 30.1237 0
lfingers 7.12502 0 0
lthumb -2.16075 60.0923 0
rclavicle 1.81379e-15 -9.12827e-15 0
rhumerus -32.4005 4.97769 -81.5476
rradius 33.9754 0 0
rwrist 3.28791 0 0
rhand -22.837 -24.9282 0
rfingers 7.12502 0 0
rthumb 3.00889 -55.518 0
9
root -2.89896 16.8086 -36.2654 4.68337 0.724549 -1.75563
lfemur -18.0007 -3.75949 -7.53109
ltibia 37.809 0 0
lfoot -17.9404 7.05881 0
ltoes -25.9117 0 0
rfemur -19.6114 0.0734191 14.684
rtibia 40.5971 0 0
rfoot -22.8489 -2.69358 0
rtoes -20.8826 0 0
lowerback 7.17538 2.519 -2.08782
upperback -3.10685 3.239 1.2808
thorax -7.47422 1.72623 2.08805
lowerneck -4.6835 -4.01484 -6.79615
upperneck 4.71509 -5.27149 6.4084
head 2.7698 -2.56764 3.1184
lclavicle 1.79864e-15 -9.11093e-15 0
lhumerus -26.6025 -5.90899 89.6258
lradius 26.0984 0 0
lwrist -30.4315 0 0
lhand -28.7964 30.1439 0
lfingers 7.12502 0 0
lthumb -2.15513 60.1125 0
rclavicle 1.79864e-15 -9.11093e-15 0
rhumerus -32.3343 5.01836 -81.5203
rradius 34.1278 0 0
rwrist 3.20362 0 0
rhand -22.6367 -24.9029 0
rfingers 7.12502 0 0
rthumb 3.11274 -55.5945 0
10
root -2.89124 16.8058 -36.264 4.80278 0.877007 -1.61945
lfemur -17.9758 -3.74666 -7.55261
ltibia 37.8326 0 0
lfoot -17.9583 7.09559 0
ltoes -25.8786 0 0
rfemur -19.6732 0.0629672 14.6776
rtibia 40.6284 0 0
rfoot -22.8065 -2.67084 0
rtoes -20.8632 0 0
lowerback 7.19553 2.51386 -2.10335
upperback -3.10211 3.22865 1.28194
thorax -7.47943 1.72217 2.10035
lowerneck -4.68371 -4.01132 -6.7901
upperneck 4.71724 -5.26664 6.39934
head 2.76983 -2.56538 3.11447
lclavicle 1.78334e-15 -9.09338e-15 0
lhumerus -26.5395 -5.9867 89.623
lradius 26.1469 0 0
lwrist -30.4055 0 0
lhand -28.7905 30.1645 0
lfingers 7.12502 0 0
lthumb -2.14942 60.1331 0
rclavicle 1.78334e-15 -9.09338e-15 0
rhumerus -32.2671 5.0597 -81.4925
rradius 34.2825 0 0
rwrist 3.11806 0 0
rhand -22.4332 -24.8772 0
rfingers 7.12502 0 0
rthumb 3.21828 -55.6736 0
